PathFileType	4	(X/Y/Z)	OpenSim_Sub07_EMGBaseline_Gyro.trc
DataRate	CameraRate	NumFrames	NumMarkers	Units	OrigDataRate	OrigDataStartFrame	OrigNumFrames
100	100	17	8	m	100	854	6828
Frame#	Time	torso_imu_offset_imu	pelvis_imu_offset_imu	tibia_r_imu_offset_imu	femur_r_imu_offset_imu	tibia_l_imu_offset_imu	femur_l_imu_offset_imu	toes_r_imu_offset_imu	toes_l_imu_offset_imu
				X1	Y1	Z1	X2	Y2	Z2	X3	Y3	Z3	X4	Y4	Z4	X5	Y5	Z5	X6	Y6	Z6	X7	Y7	Z7	X8		Y8	Z8	

854	8.53000000	-0.19105200	-0.16468100	0.04612500	0.56142800	-0.08261200	0.12726400	-0.13942400	-0.90298200	-0.75305900	0.63624100	0.04307900	-0.86567800	0.74626500	0.92146200	2.77151000	0.42737300	1.63775200	-1.75999700	0.00769900	0.07686100	-0.04612100	1.57572600	-5.80759300	0.89033300
855	8.54000000	-0.28343500	-0.12811900	0.06254800	0.65623300	-0.04337900	0.13990400	-0.62724900	-0.93765700	-0.65813100	-0.06650700	-0.01006400	-1.24752000	0.59868500	0.98955300	2.85373700	0.43115700	1.64769900	-1.93923200	-0.01860900	0.11198500	0.01830600	2.12624900	-5.66720500	1.16570200
856	8.55000000	-0.37085200	-0.10013900	0.07222500	0.69216900	-0.02288600	0.18493900	-0.81738600	-0.86164100	-0.57374100	-0.56384400	0.04226900	-1.39611900	0.62200600	0.94376000	2.95053100	0.53401900	1.64043700	-2.09174500	-0.02001700	0.06755200	0.05670300	0.66989000	-5.63322800	1.52114800
857	8.56000000	-0.45108000	-0.06214800	0.09099500	0.65889100	-0.00420400	0.24601100	-0.84432600	-0.79881800	-0.52232800	-0.65213500	0.16904400	-1.43373600	0.76203200	0.81483100	2.86479900	0.73365200	1.57031700	-2.21381900	-0.03324400	0.06938700	0.11218700	1.08542700	-5.00684200	1.75074700
858	8.57000000	-0.51405300	-0.04040500	0.11270300	0.60029700	0.01267100	0.29028000	-0.60858100	-0.64911300	-0.58889600	-0.55816100	0.24403200	-1.36698400	1.12217300	0.66498500	2.63777100	0.91865500	1.46316000	-2.29052700	-0.05886600	0.07199600	0.18818100	1.02964300	-4.75637100	2.09760700
859	8.58000000	-0.55483300	-0.00501700	0.12586600	0.52384400	0.01122900	0.28558000	-0.39513500	-0.46915000	-0.62568700	-0.35142400	0.29343400	-1.14141500	1.67501800	0.51761300	2.43496300	1.01614600	1.33334100	-2.26769500	-0.08433400	0.07208500	0.28101700	0.50216900	-4.43343100	2.29364400
860	8.59000000	-0.57636500	0.01926100	0.15938400	0.45237700	0.01388800	0.25704900	-0.28269800	-0.37027900	-0.53178500	-0.02750300	0.34128500	-0.89483100	2.00701500	0.35735300	2.16120600	0.99652300	1.19133200	-2.16961900	-0.08081800	0.06781700	0.39936200	0.50583900	-3.95078800	2.53569300
861	8.60000000	-0.60053000	0.04606300	0.19853100	0.36819600	0.01308500	0.19514600	-0.33354000	-0.30692500	-0.43302900	0.26860600	0.32201400	-0.87298600	1.96762000	0.27980200	1.65899700	0.85149300	1.08167100	-2.01139300	-0.11013100	0.09433100	0.43345800	0.20691700	-5.90698900	3.21358200
862	8.61000000	-0.59288300	0.06024700	0.20438500	0.28713800	-0.00167900	0.10656200	-0.46494500	-0.27505200	-0.44165100	0.51426200	0.24607700	-0.90911600	1.89725800	0.28052300	1.05294800	0.62198100	0.98308900	-1.84334300	-0.14314900	0.03770700	0.37515600	4.15566300	-0.82266100	2.89228800
863	8.62000000	-0.58235000	0.06120900	0.17809400	0.21918100	-0.01971300	0.00761300	-0.69825200	-0.32602100	-0.49366200	0.61559000	0.17238100	-0.89645300	1.94200800	0.37456700	0.61442400	0.38470400	0.86839600	-1.69709800	-0.19038200	-0.01933300	0.30745800	3.01571300	2.36331000	2.57227600
864	8.63000000	-0.58327800	0.06911300	0.16899100	0.16150300	-0.04404600	-0.09665600	-0.87294500	-0.37149700	-0.48615600	0.65408100	0.14009000	-0.89003500	1.98874200	0.31813900	0.53415100	0.19672400	0.79603500	-1.59240800	-0.17145400	-0.04562500	0.24808900	1.38079700	3.93932600	2.53400800
865	8.64000000	-0.57303800	0.07797300	0.17659200	0.10139400	-0.05954600	-0.20874800	-0.81293400	-0.38080700	-0.43260600	0.68056900	0.10185500	-0.92072100	2.09034400	-0.13673400	0.44384500	0.14696800	0.80064800	-1.57993900	-0.18914600	-0.05219900	0.20571200	1.61836200	4.51970200	2.57966000
866	8.65000000	-0.54237800	0.09750400	0.16826900	0.07416500	-0.05899600	-0.30371100	-0.59711600	-0.31624400	-0.41085400	0.58677900	0.08302500	-0.93470300	2.23570700	-0.66456400	0.11414200	0.25528100	0.83126500	-1.57673200	-0.17192300	-0.07489700	0.17607100	0.30775100	4.04140400	2.54862400
867	8.66000000	-0.50226500	0.09343800	0.16675000	0.05788200	-0.05537500	-0.37756100	-0.41717900	-0.23894400	-0.39647400	0.30209100	0.10376900	-0.94821500	2.38113400	-0.98482600	-0.34657900	0.38442800	0.79589100	-1.60798600	-0.13629800	-0.09072800	0.14166100	-0.06656800	3.41133000	2.36399800
868	8.67000000	-0.47259700	0.08953000	0.15774600	0.05269900	-0.03395300	-0.42369800	-0.22654100	-0.16985600	-0.36956900	-0.04466200	0.13429600	-0.95057000	2.36281500	-1.13628900	-0.84094100	0.49649900	0.73361300	-1.66749900	-0.12304600	-0.09081900	0.13991100	-0.13321400	3.07703700	1.95674300
869	8.68000000	-0.45087800	0.07396700	0.12766600	0.04754300	-0.01129800	-0.43175800	-0.06186600	-0.11713300	-0.34709800	-0.36318800	0.15538200	-0.96462500	2.19693400	-1.27356700	-1.31593500	0.57178600	0.66221400	-1.65105100	-0.11141200	-0.09234000	0.12968200	-0.26639000	2.98195200	1.34674000
870	8.69000000	-0.43387600	0.05614700	0.09007100	0.02092100	0.00399800	-0.42114200	0.04505000	-0.08338100	-0.34499600	-0.59179300	0.18761700	-0.98041700	1.83441100	-1.32518600	-1.68963400	0.55567900	0.58278300	-1.58897500	-0.10422700	-0.10002200	0.14134900	-0.16587000	3.21033100	0.61182700
